<?xml version="1.0" encoding="utf-8"?>
<!-- Generator: Adobe Illustrator 19.1.0, SVG Export Plug-In . SVG Version: 6.00 Build 0)  -->
<svg version="1.1" xmlns="http://www.w3.org/2000/svg" xmlns:xlink="http://www.w3.org/1999/xlink" x="0px" y="0px"
	 viewBox="0 0 16 16" style="enable-background:new 0 0 16 16;" xml:space="preserve">
<style type="text/css">
	.st0{fill:#323232;}
</style>
<g id="Guides">
</g>
<g id="Name">
</g>
<g id="Icon">
	<path class="st0" d="M12.1,8c1.3-0.8,2.5-2.1,2.5-3.6C14.6,2,12.8,0,10.3,0H1v16h9.2c2.6,0,4.3-2,4.3-4.4
		C14.6,10.1,13.4,8.8,12.1,8z M8,14H5V9h3c1.5,0,2.5,1.1,2.5,2.5C10.5,12.9,9.5,14,8,14z M8,7H5V2h3c1.5,0,2.5,1.1,2.5,2.5
		C10.5,5.9,9.5,7,8,7z"/>
</g>
</svg>
