<?xml version="1.0" encoding="utf-8"?>
<!-- Generator: Adobe Illustrator 19.1.0, SVG Export Plug-In . SVG Version: 6.00 Build 0)  -->
<svg version="1.1" xmlns="http://www.w3.org/2000/svg" xmlns:xlink="http://www.w3.org/1999/xlink" x="0px" y="0px"
	 viewBox="0 0 16 16" style="enable-background:new 0 0 16 16;" xml:space="preserve">
<style type="text/css">
	.st0{fill:#F0F0F0;}
	.st1{fill:#323232;}
</style>
<g id="Guides">
</g>
<g id="Name">
</g>
<g id="Icon">
	<g>
		<path class="st1" d="M5.6,7h4.8C9.9,6.3,9,5.7,8,5.7S6.1,6.3,5.6,7z"/>
		<rect x="5" y="8" class="st1" width="6" height="1"/>
		<rect x="5" y="10" class="st1" width="6" height="1"/>
		<path class="st1" d="M8,13.2c1,0,1.9-0.5,2.4-1.2H5.6C6.1,12.7,7,13.2,8,13.2z"/>
		<g>
			<path class="st1" d="M1.2,7C1,7.1,0.7,7.2,0.6,7.4C0.4,7.6,0.2,7.8,0.1,8.1C0,8.3,0,8.5,0,8.8C0,9,0,9.3,0.1,9.5
				c0.1,0.2,0.2,0.4,0.4,0.6c0.2,0.2,0.4,0.3,0.6,0.4c0.2,0.1,0.5,0.1,0.7,0.1c0,0,0,0,0,0c0,0,0,0,0,0c0.2,0,0.5,0,0.7-0.1
				c0.2-0.1,0.4-0.2,0.6-0.4C3.5,10,3.6,9.8,3.7,9.5l1.6-4.1L1.2,7z"/>
		</g>
		<g>
			<path class="st1" d="M15.9,8.3c-0.1-0.2-0.2-0.4-0.4-0.6c-0.2-0.2-0.4-0.3-0.6-0.4l-4.1-1.6l1.6,4.1c0.1,0.2,0.2,0.4,0.4,0.6
				s0.4,0.3,0.6,0.4c0.2,0.1,0.5,0.1,0.7,0.1c0,0,0,0,0,0c0,0,0,0,0,0c0.2,0,0.5,0,0.7-0.1c0.2-0.1,0.4-0.2,0.6-0.4
				c0.2-0.2,0.3-0.4,0.4-0.6C16,9.6,16,9.3,16,9.1C16,8.8,16,8.6,15.9,8.3z"/>
		</g>
		<g>
			<path class="st1" d="M6,4c0.6,0,1-0.4,1-1S6.6,2,6,2S5,2.4,5,3S5.4,4,6,4z"/>
		</g>
		<g>
			<path class="st1" d="M10,4c0.6,0,1-0.4,1-1s-0.4-1-1-1S9,2.4,9,3S9.4,4,10,4z"/>
		</g>
	</g>
</g>
</svg>
