<?xml version="1.0" encoding="utf-8"?>
<!-- Generator: Adobe Illustrator 19.1.0, SVG Export Plug-In . SVG Version: 6.00 Build 0)  -->
<svg version="1.1" xmlns="http://www.w3.org/2000/svg" xmlns:xlink="http://www.w3.org/1999/xlink" x="0px" y="0px"
	 viewBox="0 0 16 16" style="enable-background:new 0 0 16 16;" xml:space="preserve">
<style type="text/css">
	.st0{fill:#F0F0F0;}
	.st1{fill:#323232;}
</style>
<g id="Guides">
</g>
<g id="Name">
</g>
<g id="Icon">
	<path class="st1" d="M10,0C8.5,0,8,1,8,1S7.5,0,5,0C3.3,0,0,0,0,0v14h5c0,0,3,0,3,2c0-2,3-2,3-2h5V0C16,0,11.7,0,10,0z M5,12H2V2h3
		c0,0,3,0,3,2v9C8,13,7.5,12,5,12z"/>
</g>
</svg>
