<?xml version="1.0" encoding="utf-8"?>
<!-- Generator: Adobe Illustrator 19.1.0, SVG Export Plug-In . SVG Version: 6.00 Build 0)  -->
<svg version="1.1" xmlns="http://www.w3.org/2000/svg" xmlns:xlink="http://www.w3.org/1999/xlink" x="0px" y="0px"
	 viewBox="0 0 16 16" style="enable-background:new 0 0 16 16;" xml:space="preserve">
<style type="text/css">
	.st0{fill:#F0F0F0;}
	.st1{fill:#323232;}
</style>
<g id="Guides">
</g>
<g id="Name">
</g>
<g id="Icon">
	<path class="st1" d="M5,16L8,6l3,10H5z"/>
	<path class="st1" d="M3.4,11.8C2.5,10.8,2,9.4,2,8c0-1.7,0.7-3.2,1.8-4.2C4.8,2.7,6.3,2,8,2c1.7,0,3.2,0.7,4.2,1.8S14,6.3,14,8
		c0,1.4-0.5,2.8-1.4,3.8l1.3,1.6C15.2,12,16,10.1,16,8c0-2.2-0.9-4.2-2.3-5.7S10.2,0,8,0C5.8,0,3.8,0.9,2.3,2.3C0.9,3.8,0,5.8,0,8
		c0,2.1,0.8,4,2.1,5.4L3.4,11.8z"/>
</g>
</svg>
