<?xml version="1.0" encoding="utf-8"?>
<!-- Generator: Adobe Illustrator 19.1.0, SVG Export Plug-In . SVG Version: 6.00 Build 0)  -->
<svg version="1.1" xmlns="http://www.w3.org/2000/svg" xmlns:xlink="http://www.w3.org/1999/xlink" x="0px" y="0px"
	 viewBox="0 0 16 16" style="enable-background:new 0 0 16 16;" xml:space="preserve">
<style type="text/css">
	.st0{fill:#F0F0F0;}
	.st1{fill:#323232;}
</style>
<g id="Guides">
</g>
<g id="Name">
</g>
<g id="Icon">
	<path class="st1" d="M13,10c-1.3,0-2.4,0.8-2.8,2H5.8c0-0.1-0.1-0.2-0.1-0.3l6-6C12.1,5.9,12.5,6,13,6c1.7,0,3-1.3,3-3s-1.3-3-3-3
		c-1.3,0-2.4,0.8-2.8,2H5.8C5.4,0.8,4.3,0,3,0C1.3,0,0,1.3,0,3s1.3,3,3,3c1.3,0,2.4-0.8,2.8-2h4.4c0,0.1,0.1,0.2,0.1,0.2l-6,6
		C3.9,10.1,3.5,10,3,10c-1.7,0-3,1.3-3,3s1.3,3,3,3c1.3,0,2.4-0.8,2.8-2h4.4c0.4,1.2,1.5,2,2.8,2c1.7,0,3-1.3,3-3S14.7,10,13,10z
		 M3,4.5C2.2,4.5,1.5,3.8,1.5,3S2.2,1.5,3,1.5S4.5,2.2,4.5,3S3.8,4.5,3,4.5z M13,1.5c0.8,0,1.5,0.7,1.5,1.5S13.8,4.5,13,4.5
		S11.5,3.8,11.5,3S12.2,1.5,13,1.5z M3,14.5c-0.8,0-1.5-0.7-1.5-1.5s0.7-1.5,1.5-1.5s1.5,0.7,1.5,1.5S3.8,14.5,3,14.5z"/>
</g>
</svg>
