<?xml version="1.0" encoding="utf-8"?>
<!-- Generator: Adobe Illustrator 19.1.0, SVG Export Plug-In . SVG Version: 6.00 Build 0)  -->
<svg version="1.1" xmlns="http://www.w3.org/2000/svg" xmlns:xlink="http://www.w3.org/1999/xlink" x="0px" y="0px"
	 viewBox="0 0 16 16" style="enable-background:new 0 0 16 16;" xml:space="preserve">
<style type="text/css">
	.st0{fill:#F0F0F0;}
	.st1{fill:#323232;}
</style>
<g id="Guides">
</g>
<g id="Name">
</g>
<g id="Icon">
	<path class="st1" d="M6.8,7.2c1.6,1.6,1.6,4.1,0,5.7l0,0c0,0,0,0,0,0C6,13.6,5,14,4,14c0,0,0,2,0,2c0,0-2-2.3-2.8-3.2
		c-1.5-1.6-1.6-4.1,0-5.7S5.2,5.6,6.8,7.2z"/>
	<path class="st1" d="M14.1,1.9C12.8,0.6,11.2,0,9.5,0C7.8,0,6.2,0.6,4.9,1.9c-2.5,2.5-2.5,6.7,0,9.2C6,12.2,7.5,12.9,9,13v3
		l5.1-4.9C16.6,8.6,16.6,4.4,14.1,1.9z M5,6.5c0-1.2,0.5-2.3,1.3-3.2C7.2,2.5,8.3,2,9.5,2c1.2,0,2.3,0.5,3.2,1.3
		c0.8,0.8,1.3,2,1.3,3.2c0,1.2-0.5,2.3-1.3,3.2c-0.8,0.8-2,1.3-3.2,1.3c-1.2,0-2.3-0.5-3.2-1.3C5.5,8.8,5,7.7,5,6.5z"/>
</g>
</svg>
