<?xml version="1.0" encoding="utf-8"?>
<!-- Generator: Adobe Illustrator 19.1.0, SVG Export Plug-In . SVG Version: 6.00 Build 0)  -->
<svg version="1.1" xmlns="http://www.w3.org/2000/svg" xmlns:xlink="http://www.w3.org/1999/xlink" x="0px" y="0px"
	 viewBox="0 0 24 24" style="enable-background:new 0 0 24 24;" xml:space="preserve">
<style type="text/css">
	.st0{fill:#323232;}
</style>
<g id="Guides">
</g>
<g id="Name">
</g>
<g id="Icon">
	<path class="st0" d="M23,11h-1.3c-0.6-1.7-2.3-3-4.2-3c-1.7,0-3.2,1-3.9,2.3c-0.5-0.2-1-0.3-1.6-0.3s-1.1,0.1-1.6,0.3
		C9.7,9,8.2,8,6.5,8c-2,0-3.6,1.3-4.2,3H1v2h1.1c0.3,2.2,2.1,4,4.4,4C9,17,11,15,11,12.5c0-0.1,0-0.1,0-0.2c0.3-0.2,0.6-0.3,1-0.3
		c0.4,0,0.7,0.1,1,0.3c0,0.1,0,0.1,0,0.2c0,2.5,2,4.5,4.5,4.5c2.3,0,4.2-1.8,4.4-4H23V11z M6.5,15C5.1,15,4,13.9,4,12.5
		C4,11.1,5.1,10,6.5,10C7.9,10,9,11.1,9,12.5C9,13.9,7.9,15,6.5,15z M17.5,15c-1.4,0-2.5-1.1-2.5-2.5c0-1.4,1.1-2.5,2.5-2.5
		c1.4,0,2.5,1.1,2.5,2.5C20,13.9,18.9,15,17.5,15z"/>
</g>
</svg>
