<?xml version="1.0" encoding="utf-8"?>
<!-- Generator: Adobe Illustrator 19.1.0, SVG Export Plug-In . SVG Version: 6.00 Build 0)  -->
<svg version="1.1" xmlns="http://www.w3.org/2000/svg" xmlns:xlink="http://www.w3.org/1999/xlink" x="0px" y="0px"
	 viewBox="0 0 16 16" style="enable-background:new 0 0 16 16;" xml:space="preserve">
<style type="text/css">
	.st0{fill:#F0F0F0;}
	.st1{fill:#323232;}
</style>
<g id="Guides">
</g>
<g id="Name">
</g>
<g id="Icon">
	<path class="st1" d="M15,13h-4c-0.6,0-1,0.4-1,1v2h6v-2C16,13.4,15.6,13,15,13z"/>
	<path class="st1" d="M5,13H1c-0.6,0-1,0.4-1,1v2h6v-2C6,13.4,5.6,13,5,13z"/>
	<path class="st1" d="M5,3c0,1.7,1.3,3,3,3s3-1.3,3-3S9.7,0,8,0S5,1.3,5,3z"/>
	<path class="st1" d="M0,9c0,1.7,1.3,3,3,3s3-1.3,3-3S4.7,6,3,6S0,7.3,0,9z"/>
	<path class="st1" d="M10,9c0,1.7,1.3,3,3,3s3-1.3,3-3s-1.3-3-3-3S10,7.3,10,9z"/>
</g>
</svg>
