<?xml version="1.0" encoding="utf-8"?>
<!-- Generator: Adobe Illustrator 19.1.0, SVG Export Plug-In . SVG Version: 6.00 Build 0)  -->
<svg version="1.1" xmlns="http://www.w3.org/2000/svg" xmlns:xlink="http://www.w3.org/1999/xlink" x="0px" y="0px"
	 viewBox="0 0 16 16" style="enable-background:new 0 0 16 16;" xml:space="preserve">
<style type="text/css">
	.st0{fill:#F0F0F0;}
	.st1{fill:#323232;}
</style>
<g id="Guides">
</g>
<g id="Name">
</g>
<g id="Icon">
	<path class="st1" d="M0.5,5H5V0.6C3,1.4,1.4,3,0.5,5z"/>
	<path class="st1" d="M8,0C7.7,0,7.3,0,7,0.1V1v1.1V7H2.1H1H0.1C0,7.3,0,7.7,0,8c0,4.4,3.6,8,8,8s8-3.6,8-8S12.4,0,8,0z M13.9,7H9
		V2.1C11.5,2.5,13.5,4.5,13.9,7z M8,14c-3,0-5.4-2.2-5.9-5h11.8C13.4,11.8,11,14,8,14z"/>
</g>
</svg>
