<?xml version="1.0" encoding="utf-8"?>
<!-- Generator: Adobe Illustrator 19.1.0, SVG Export Plug-In . SVG Version: 6.00 Build 0)  -->
<svg version="1.1" xmlns="http://www.w3.org/2000/svg" xmlns:xlink="http://www.w3.org/1999/xlink" x="0px" y="0px"
	 viewBox="0 0 16 16" style="enable-background:new 0 0 16 16;" xml:space="preserve">
<style type="text/css">
	.st0{fill:#F0F0F0;}
	.st1{fill:#323232;}
</style>
<g id="Guides">
</g>
<g id="Name">
</g>
<g id="Icon">
	<path class="st1" d="M13,5c-0.6,0.6-1.4,0.6-2,0c-0.6-0.6-0.6-1.4,0-2l2.5-2.5c-0.6-0.3-1.3-0.5-2-0.5C9,0,7,2,7,4.5
		C7,5,7.1,5.4,7.2,5.8l-6.6,6.6c-0.8,0.8-0.8,2.2,0,3c0.8,0.8,2.2,0.8,3,0l6.6-6.6C10.6,8.9,11.1,9,11.5,9C14,9,16,7,16,4.5
		c0-0.7-0.2-1.4-0.5-2L13,5z"/>
</g>
</svg>
