<?xml version="1.0" encoding="utf-8"?>
<!-- Generator: Adobe Illustrator 19.1.0, SVG Export Plug-In . SVG Version: 6.00 Build 0)  -->
<svg version="1.1" xmlns="http://www.w3.org/2000/svg" xmlns:xlink="http://www.w3.org/1999/xlink" x="0px" y="0px"
	 viewBox="0 0 16 16" style="enable-background:new 0 0 16 16;" xml:space="preserve">
<style type="text/css">
	.st0{fill:#F0F0F0;}
	.st1{fill:#323232;}
</style>
<g id="Guides">
</g>
<g id="Name">
</g>
<g id="Icon">
	<g>
		<path class="st1" d="M2,0v16h12V0H2z M8,2c1.1,0,2,0.9,2,2c0,1.1-0.9,2-2,2C6.9,6,6,5.1,6,4C6,2.9,6.9,2,8,2z M8,14
			c-1.7,0-3-1.3-3-3c0-1.7,1.3-3,3-3c1.7,0,3,1.3,3,3C11,12.7,9.7,14,8,14z"/>
	</g>
	<circle class="st1" cx="8" cy="11" r="1.5"/>
</g>
</svg>
