<?xml version="1.0" encoding="utf-8"?>
<!-- Generator: Adobe Illustrator 19.1.0, SVG Export Plug-In . SVG Version: 6.00 Build 0)  -->
<svg version="1.1" xmlns="http://www.w3.org/2000/svg" xmlns:xlink="http://www.w3.org/1999/xlink" x="0px" y="0px"
	 viewBox="0 0 24 24" style="enable-background:new 0 0 24 24;" xml:space="preserve">
<style type="text/css">
	.st0{fill:#323232;}
</style>
<g id="Guides">
</g>
<g id="Name">
</g>
<g id="Icon">
	<path class="st0" d="M18,18H5.9C4.2,18,3,19.4,3,21v2h18v-2C21,19.4,19.6,18,18,18z"/>
	<g>
		<path class="st0" d="M12,1C7.6,1,4,4.6,4,9c0,4.4,3.6,8,8,8c4.4,0,8-3.6,8-8C20,4.6,16.4,1,12,1z M15,14l-3-2.3L9,14l1-3.7L7,8
			l3.7-0.3L12,4l1.3,3.7L17,8l-3,2.3L15,14z"/>
	</g>
</g>
</svg>
