<?xml version="1.0" encoding="utf-8"?>
<!-- Generator: Adobe Illustrator 19.1.0, SVG Export Plug-In . SVG Version: 6.00 Build 0)  -->
<svg version="1.1" xmlns="http://www.w3.org/2000/svg" xmlns:xlink="http://www.w3.org/1999/xlink" x="0px" y="0px"
	 viewBox="0 0 16 16" style="enable-background:new 0 0 16 16;" xml:space="preserve">
<style type="text/css">
	.st0{fill:#F0F0F0;}
	.st1{fill:#323232;}
</style>
<g id="Guides">
</g>
<g id="Name">
</g>
<g id="Icon">
	<path class="st1" d="M14,6h-2V3l2-2h-2V0H4v1H2l2,2v3H2l2,2v3H2l2,2v3h8v-3l2-2h-2V8L14,6z M8,15c-1.1,0-2-0.9-2-2c0-1.1,0.9-2,2-2
		s2,0.9,2,2C10,14.1,9.1,15,8,15z M8,10c-1.1,0-2-0.9-2-2c0-1.1,0.9-2,2-2s2,0.9,2,2C10,9.1,9.1,10,8,10z M8,5C6.9,5,6,4.1,6,3
		c0-1.1,0.9-2,2-2s2,0.9,2,2C10,4.1,9.1,5,8,5z"/>
</g>
</svg>
