<?xml version="1.0" encoding="utf-8"?>
<!-- Generator: Adobe Illustrator 19.1.0, SVG Export Plug-In . SVG Version: 6.00 Build 0)  -->
<svg version="1.1" xmlns="http://www.w3.org/2000/svg" xmlns:xlink="http://www.w3.org/1999/xlink" x="0px" y="0px"
	 viewBox="0 0 16 16" style="enable-background:new 0 0 16 16;" xml:space="preserve">
<style type="text/css">
	.st0{fill:#F0F0F0;}
	.st1{fill:#323232;}
</style>
<g id="Guides">
</g>
<g id="Name">
</g>
<g id="Icon">
	<g>
		<polygon class="st1" points="14,7 14,8 14,9 16,9 16,7 		"/>
		<polygon class="st1" points="6,7 4,7 4,9 6,9 8,9 8,7 8,4 6,4 		"/>
		<path class="st1" d="M12,0H2v3.1C0.8,4.4,0,6.1,0,8c0,1.9,0.8,3.6,2,4.9V16h10v-3.1c1.2-1.3,2-3,2-4.9s-0.8-3.6-2-4.9V0z M7,13
			c-2.8,0-5-2.2-5-5s2.2-5,5-5s5,2.2,5,5S9.8,13,7,13z"/>
	</g>
</g>
</svg>
