<?xml version="1.0" encoding="utf-8"?>
<!-- Generator: Adobe Illustrator 19.1.0, SVG Export Plug-In . SVG Version: 6.00 Build 0)  -->
<svg version="1.1" xmlns="http://www.w3.org/2000/svg" xmlns:xlink="http://www.w3.org/1999/xlink" x="0px" y="0px"
	 viewBox="0 0 16 16" style="enable-background:new 0 0 16 16;" xml:space="preserve">
<style type="text/css">
	.st0{fill:#F0F0F0;}
	.st1{fill:#323232;}
</style>
<g id="Guides">
</g>
<g id="Name">
</g>
<g id="Icon">
	<path class="st1" d="M14.5,3.4C14.5,3.4,14.5,3.4,14.5,3.4C14,2.6,13.4,2,12.7,1.5c0,0,0,0,0,0C11.3,0.5,9.7,0,8,0C3.6,0,0,3.6,0,8
		c0,1.7,0.5,3.3,1.5,4.6c0,0,0,0,0,0C2,13.4,2.6,14,3.3,14.5c0,0,0,0,0,0C4.7,15.5,6.3,16,8,16c4.4,0,8-3.6,8-8
		C16,6.3,15.5,4.7,14.5,3.4z M12.7,4.7c0,2-0.8,3.9-2,5.3l-2-2l4-4C12.7,4.3,12.7,4.5,12.7,4.7z M3.3,11.3c0-2,0.8-3.9,2-5.3l2,2
		l-4,4C3.3,11.7,3.3,11.5,3.3,11.3z M8,7.3l-2-2c1.4-1.2,3.3-2,5.3-2c0.2,0,0.5,0,0.7,0L8,7.3z M8,8.7l2,2c-1.4,1.2-3.3,2-5.3,2
		c-0.2,0-0.5,0-0.7,0L8,8.7z M11.6,2.2c-0.1,0-0.2,0-0.4,0c-2.3,0-4.4,0.9-6,2.3L3.5,2.8c1.2-1,2.8-1.7,4.5-1.7
		C9.3,1.1,10.6,1.5,11.6,2.2z M2.8,3.5l1.7,1.7c-1.4,1.6-2.3,3.7-2.3,6c0,0.1,0,0.2,0,0.4C1.5,10.6,1.1,9.3,1.1,8
		C1.1,6.3,1.8,4.7,2.8,3.5z M4.4,13.8c0.1,0,0.2,0,0.4,0c2.3,0,4.4-0.9,6-2.3l1.7,1.7c-1.2,1-2.8,1.7-4.5,1.7
		C6.7,14.9,5.4,14.5,4.4,13.8z M13.2,12.5l-1.7-1.7c1.4-1.6,2.3-3.7,2.3-6c0-0.1,0-0.2,0-0.4c0.7,1.1,1.1,2.3,1.1,3.6
		C14.9,9.7,14.2,11.3,13.2,12.5z"/>
</g>
</svg>
