<?xml version="1.0" encoding="utf-8"?>
<!-- Generator: Adobe Illustrator 19.1.0, SVG Export Plug-In . SVG Version: 6.00 Build 0)  -->
<svg version="1.1" xmlns="http://www.w3.org/2000/svg" xmlns:xlink="http://www.w3.org/1999/xlink" x="0px" y="0px"
	 viewBox="0 0 16 16" style="enable-background:new 0 0 16 16;" xml:space="preserve">
<style type="text/css">
	.st0{fill:#323232;}
</style>
<g id="Guides">
</g>
<g id="Name">
</g>
<g id="Icon">
	<path class="st0" d="M16,7h-1.1C14.5,3.9,12.1,1.5,9,1.1V0H7v1.1C3.9,1.5,1.5,3.9,1.1,7H0v2h1.1c0.4,3.1,2.9,5.5,5.9,5.9V16h2v-1.1
		c3.1-0.4,5.5-2.9,5.9-5.9H16V7z M9,12.9V10H7v2.9C5,12.5,3.5,11,3.1,9H6V7H3.1C3.5,5,5,3.5,7,3.1V6h2V3.1C11,3.5,12.5,5,12.9,7H10
		v2h2.9C12.5,11,11,12.5,9,12.9z"/>
</g>
</svg>
