<?xml version="1.0" encoding="utf-8"?>
<!-- Generator: Adobe Illustrator 19.1.0, SVG Export Plug-In . SVG Version: 6.00 Build 0)  -->
<svg version="1.1" xmlns="http://www.w3.org/2000/svg" xmlns:xlink="http://www.w3.org/1999/xlink" x="0px" y="0px"
	 viewBox="0 0 16 16" style="enable-background:new 0 0 16 16;" xml:space="preserve">
<style type="text/css">
	.st0{fill:#323232;}
</style>
<g id="Guides">
</g>
<g id="Name">
</g>
<g id="Icon">
	<g id="Icon_1_">
		<g>
			<g>
				<path class="st0" d="M14.1,8c0-0.3,0-0.6-0.1-1L16,5.3l-1.7-2.7L12,3.4c-0.6-0.5-1.2-0.9-1.9-1.1L9.6,0H6.4L5.9,2.2
					C5.2,2.5,4.5,2.9,4,3.4L1.7,2.6L0,5.3L1.9,7c0,0.3-0.1,0.6-0.1,1s0,0.6,0.1,1L0,10.7l1.7,2.7L4,12.6c0.6,0.5,1.2,0.9,1.9,1.1
					L6.4,16h3.2l0.5-2.2c0.7-0.3,1.3-0.6,1.9-1.1l2.3,0.8l1.7-2.7L14.1,9C14.1,8.6,14.1,8.3,14.1,8z M8,10c-1.1,0-2-0.9-2-2
					s0.9-2,2-2s2,0.9,2,2S9.1,10,8,10z"/>
			</g>
		</g>
	</g>
</g>
</svg>
