<?xml version="1.0" encoding="utf-8"?>
<!-- Generator: Adobe Illustrator 19.1.0, SVG Export Plug-In . SVG Version: 6.00 Build 0)  -->
<svg version="1.1" xmlns="http://www.w3.org/2000/svg" xmlns:xlink="http://www.w3.org/1999/xlink" x="0px" y="0px"
	 viewBox="0 0 16 16" style="enable-background:new 0 0 16 16;" xml:space="preserve">
<style type="text/css">
	.st0{fill:#323232;}
</style>
<g id="Guides">
</g>
<g id="Name">
</g>
<g id="Icon">
	<path class="st0" d="M12.5,5L12.5,5L9,5c0-0.6-0.4-1-1-1S7,4.4,7,5H3.5l0,0h0C1.6,5,0,6.6,0,8.5S1.6,12,3.5,12S7,10.4,7,8.5
		C7,8.3,7,8.2,6.9,8h2.1C9,8.2,9,8.3,9,8.5c0,1.9,1.6,3.5,3.5,3.5S16,10.4,16,8.5C16,6.6,14.4,5,12.5,5z M3.5,10C2.7,10,2,9.3,2,8.5
		S2.7,7,3.5,7S5,7.7,5,8.5S4.3,10,3.5,10z M12.5,10C11.7,10,11,9.3,11,8.5S11.7,7,12.5,7S14,7.7,14,8.5S13.3,10,12.5,10z"/>
</g>
</svg>
