<?xml version="1.0" encoding="utf-8"?>
<!-- Generator: Adobe Illustrator 19.1.0, SVG Export Plug-In . SVG Version: 6.00 Build 0)  -->
<svg version="1.1" xmlns="http://www.w3.org/2000/svg" xmlns:xlink="http://www.w3.org/1999/xlink" x="0px" y="0px"
	 viewBox="0 0 16 16" style="enable-background:new 0 0 16 16;" xml:space="preserve">
<style type="text/css">
	.st0{fill:#323232;}
</style>
<g id="Guides">
</g>
<g id="Name">
</g>
<g id="Icon">
	<g>
		<path class="st0" d="M8,6C6.9,6,6,6.9,6,8s0.9,2,2,2c1.1,0,2-0.9,2-2S9.1,6,8,6z"/>
		<path class="st0" d="M8,4.5c3.1,0,5.1,1.9,6.2,3.5c-1.1,1.6-3.1,3.5-6.2,3.5c-3.1,0-5.1-1.9-6.2-3.5C2.9,6.4,4.9,4.5,8,4.5 M8,3
			C4.4,3,1.7,5.1,0,8c1.7,2.9,4.4,5,8,5s6.3-2.1,8-5C14.3,5.1,11.6,3,8,3L8,3z"/>
	</g>
</g>
</svg>
